<svg width="80" height="80" viewBox="0 0 80 80" fill="none" xmlns="http://www.w3.org/2000/svg">
<path d="M46 50C46 51.5913 45.3678 53.1174 44.2426 54.2426C43.1174 55.3679 41.5913 56 40 56C38.4087 56 36.8826 55.3679 35.7573 54.2426C34.6321 53.1174 34 51.5913 34 50C34 48.4087 34.6321 46.8826 35.7573 45.7574C36.8826 44.6321 38.4087 44 40 44C41.5913 44 43.1174 44.6321 44.2426 45.7574C45.3678 46.8826 46 48.4087 46 50ZM34.948 21.24L26.436 32.184C26.1518 32.5495 25.7497 32.8051 25.2982 32.9072C24.8467 33.0093 24.3737 32.9516 23.96 32.744L15.46 28.492C15.9765 27.3609 16.1289 26.0973 15.8961 24.8759C15.6632 23.6544 15.0566 22.5355 14.1601 21.6738C13.2637 20.8121 12.1217 20.2502 10.892 20.0658C9.66227 19.8814 8.40566 20.0836 7.29589 20.6445C6.18612 21.2054 5.27801 22.0971 4.69714 23.1966C4.11626 24.296 3.89131 25.5487 4.05339 26.7816C4.21548 28.0144 4.75658 29.1664 5.60189 30.0784C6.4472 30.9903 7.55495 31.6171 8.77198 31.872L15.54 64.032C15.777 65.1555 16.3934 66.1631 17.2857 66.8857C18.178 67.6083 19.2918 68.0018 20.44 68H59.568C60.7155 68.0008 61.8283 67.607 62.7198 66.8845C63.6113 66.1619 64.2271 65.1548 64.464 64.032L71.232 31.872C72.449 31.6171 73.5568 30.9903 74.4021 30.0784C75.2474 29.1664 75.7885 28.0144 75.9506 26.7816C76.1126 25.5487 75.8877 24.296 75.3068 23.1966C74.726 22.0971 73.8178 21.2054 72.7081 20.6445C71.5983 20.0836 70.3417 19.8814 69.112 20.0658C67.8823 20.2502 66.7403 20.8121 65.8438 21.6738C64.9474 22.5355 64.3408 23.6544 64.1079 24.8759C63.875 26.0973 64.0274 27.3609 64.544 28.492L56.04 32.744C55.6262 32.9516 55.1533 33.0093 54.7017 32.9072C54.2502 32.8051 53.8481 32.5495 53.564 32.184L45.052 21.24C45.6329 20.3334 45.9591 19.2872 45.9964 18.2111C46.0337 17.135 45.7807 16.0687 45.2641 15.124C44.7474 14.1793 43.986 13.3911 43.0598 12.842C42.1336 12.2929 41.0767 12.0031 40 12.0031C38.9232 12.0031 37.8663 12.2929 36.9401 12.842C36.0139 13.3911 35.2526 14.1793 34.7359 15.124C34.2192 16.0687 33.9663 17.135 34.0036 18.2111C34.0409 19.2872 34.3671 20.3334 34.948 21.24ZM40 21.252L50.408 34.636C51.26 35.7305 52.4649 36.4961 53.8177 36.8024C55.1705 37.1086 56.5876 36.9368 57.828 36.316L67.188 31.636L60.548 63.204C60.5003 63.4284 60.3768 63.6296 60.1984 63.7738C60.02 63.918 59.7974 63.9964 59.568 63.996H20.436C20.2066 63.9964 19.984 63.918 19.8055 63.7738C19.6271 63.6296 19.5037 63.4284 19.456 63.204L12.812 31.64L22.172 36.32C23.4123 36.9408 24.8295 37.1126 26.1823 36.8064C27.5351 36.5001 28.74 35.7345 29.592 34.64L40 21.252Z" fill="white"/>
</svg>
