<svg width="80" height="80" viewBox="0 0 80 80" fill="none" xmlns="http://www.w3.org/2000/svg">
<path d="M30 8.16001C29.4696 8.16001 28.9609 8.37072 28.5858 8.74579C28.2107 9.12087 28 9.62957 28 10.16V20H18C17.4696 20 16.9609 20.2107 16.5858 20.5858C16.2107 20.9609 16 21.4696 16 22V38.252L9.464 40.076C9.18408 40.1543 8.92457 40.2926 8.70356 40.4814C8.48254 40.6701 8.30532 40.9048 8.18425 41.169C8.06317 41.4333 8.00114 41.7207 8.00248 42.0114C8.00382 42.302 8.06849 42.5889 8.192 42.852L15.4 58.172C16.2802 57.1103 17.4992 56.3843 18.852 56.116L12.816 43.292L37.84 36.32C39.2452 35.9283 40.7308 35.9283 42.136 36.32L67.164 43.292L61.004 56.088C62.3592 56.3132 63.5961 56.9966 64.508 58.024L71.808 42.872C71.9344 42.6084 72.0015 42.3203 72.0046 42.028C72.0077 41.7357 71.9466 41.4462 71.8257 41.18C71.7048 40.9138 71.5271 40.6774 71.3049 40.4874C71.0828 40.2973 70.8217 40.1583 70.54 40.08L64 38.256V22C64 21.4696 63.7893 20.9609 63.4142 20.5858C63.0391 20.2107 62.5304 20 62 20H52V10.156C52 9.62557 51.7893 9.11686 51.4142 8.74179C51.0391 8.36672 50.5304 8.15601 50 8.15601L30 8.16001ZM48 20H32V12.16H48V20ZM60 24V37.14L43.204 32.46C41.0974 31.8732 38.8706 31.8732 36.764 32.46L20 37.144V24H60ZM61.952 61.56L61.94 61.52C61.8366 61.1064 61.6038 60.7366 61.2755 60.4647C60.9472 60.1927 60.5405 60.0328 60.1149 60.0082C59.6893 59.9836 59.2669 60.0957 58.9095 60.3281C58.5521 60.5605 58.2783 60.901 58.128 61.3L58.108 61.34L58.028 61.544C57.5184 62.6906 56.8623 63.7662 56.076 64.744C54.644 66.504 52.656 68 50 68C47.344 68 45.352 66.5 43.912 64.736C43.0775 63.7014 42.3884 62.5574 41.864 61.336L41.844 61.292C41.6989 60.913 41.4418 60.5871 41.1071 60.3577C40.7723 60.1282 40.3757 60.006 39.9699 60.0073C39.564 60.0086 39.1682 60.1333 38.8349 60.3649C38.5016 60.5965 38.2467 60.9241 38.104 61.304L38.084 61.344L38.004 61.548C37.4973 62.6931 36.8438 63.7675 36.06 64.744C34.636 66.504 32.656 68 30 68C27.344 68 25.36 66.5 23.928 64.74C23.0955 63.7054 22.4091 62.5614 21.888 61.34L21.872 61.3C21.7217 60.901 21.4479 60.5565 21.0905 60.3241C20.7331 60.0917 20.3107 59.9796 19.8851 60.0042C19.4595 60.0288 19.0528 60.1887 18.7245 60.4607C18.3962 60.7326 18.1634 61.1024 18.06 61.516L18.052 61.548L17.996 61.732C17.6308 62.8331 17.092 63.8689 16.4 64.8C15.172 66.44 13.216 68 10 68C9.46957 68 8.96086 68.2107 8.58579 68.5858C8.21071 68.9609 8 69.4696 8 70C8 70.5304 8.21071 71.0392 8.58579 71.4142C8.96086 71.7893 9.46957 72 10 72C14.784 72 17.828 69.568 19.6 67.2C19.8 66.932 19.992 66.66 20.16 66.396C20.364 66.68 20.584 66.972 20.824 67.264C22.64 69.504 25.656 72 30 72C34.344 72 37.352 69.5 39.168 67.26C39.455 66.9061 39.7273 66.5405 39.984 66.164C40.236 66.524 40.512 66.896 40.812 67.268C42.64 69.508 45.656 72 50 72C54.344 72 57.36 69.504 59.176 67.264C59.408 66.98 59.624 66.696 59.824 66.416C59.996 66.684 60.184 66.96 60.384 67.232C62.16 69.616 65.212 72.06 70.024 72C70.2866 71.9969 70.5461 71.942 70.7875 71.8386C71.029 71.7352 71.2477 71.5852 71.4312 71.3972C71.6147 71.2093 71.7593 70.9871 71.8569 70.7432C71.9545 70.4993 72.0032 70.2386 72 69.976C71.9968 69.7134 71.942 69.4539 71.8386 69.2125C71.7352 68.971 71.5852 68.7523 71.3972 68.5688C71.2093 68.3853 70.9871 68.2407 70.7432 68.1431C70.4993 68.0455 70.2386 67.9969 69.976 68C66.764 68.04 64.816 66.484 63.596 64.844C62.9038 63.904 62.3676 62.8586 62.008 61.748L61.952 61.56Z" fill="white"/>
</svg>
