<svg width="80" height="80" viewBox="0 0 80 80" fill="none" xmlns="http://www.w3.org/2000/svg">
<path d="M12.6667 17H67.3333C69.9093 17 72 19.0608 72 21.6V58.4C72 59.62 71.5083 60.79 70.6332 61.6527C69.758 62.5154 68.571 63 67.3333 63H12.6667C11.429 63 10.242 62.5154 9.36683 61.6527C8.49167 60.79 8 59.62 8 58.4V21.6C8 19.0608 10.0907 17 12.6667 17ZM12 28.5973V58.4C12 58.7627 12.2987 59.0571 12.6667 59.0571H67.3333C67.5101 59.0571 67.6797 58.9879 67.8047 58.8647C67.9298 58.7414 68 58.5743 68 58.4V28.5973L42.6133 45.5069C41.0347 46.5583 38.9653 46.5583 37.3867 45.5069L12 28.5973ZM12 21.6V23.8395L39.6267 42.2395C39.7369 42.313 39.8669 42.3522 40 42.3522C40.1331 42.3522 40.2631 42.313 40.3733 42.2395L68 23.8395V21.6C68 21.4257 67.9298 21.2586 67.8047 21.1353C67.6797 21.0121 67.5101 20.9429 67.3333 20.9429H12.6667C12.4899 20.9429 12.3203 21.0121 12.1953 21.1353C12.0702 21.2586 12 21.4257 12 21.6Z" fill="white"/>
</svg>
