<svg width="80" height="80" viewBox="0 0 80 80" fill="none" xmlns="http://www.w3.org/2000/svg">
<path d="M70.4687 58.4375C67.9875 55.9375 61.9781 52.2891 59.0625 50.8187C55.2656 48.9062 54.9531 48.75 51.9687 50.9672C49.9781 52.4469 48.6547 53.7688 46.325 53.2719C43.9953 52.775 38.9328 49.9734 34.5 45.5547C30.0672 41.1359 27.1031 35.9266 26.6047 33.6047C26.1062 31.2828 27.45 29.975 28.9156 27.9797C30.9812 25.1672 30.825 24.6984 29.0594 20.9016C27.6828 17.9484 23.9281 11.9953 21.4187 9.52656C18.7344 6.875 18.7344 7.34375 17.0047 8.0625C15.5965 8.65498 14.2455 9.37518 12.9687 10.2141C10.4687 11.875 9.08123 13.2547 8.11092 15.3281C7.1406 17.4016 6.70467 22.2625 11.7156 31.3656C16.7265 40.4687 20.2422 45.1234 27.5187 52.3797C34.7953 59.6359 40.3906 63.5375 48.5703 68.125C58.689 73.7922 62.5703 72.6875 64.65 71.7188C66.7297 70.75 68.1156 69.375 69.7797 66.875C70.6207 65.6003 71.3425 64.2509 71.9359 62.8438C72.6562 61.1203 73.125 61.1203 70.4687 58.4375Z" stroke="white" stroke-width="4.5" stroke-miterlimit="10"/>
</svg>
