<svg width="80" height="80" viewBox="0 0 80 80" fill="none" xmlns="http://www.w3.org/2000/svg">
<path d="M52.43 12.9467C57.21 8.14668 64.2034 8.04668 68.0734 11.9333C71.9534 15.8267 71.85 22.8667 67.0634 27.6667L58.9867 35.7767C58.5319 36.2488 58.2808 36.8807 58.2874 37.5362C58.294 38.1917 58.5578 38.8184 59.022 39.2813C59.4862 39.7442 60.1136 40.0062 60.7692 40.011C61.4247 40.0157 62.0558 39.7628 62.5267 39.3067L70.6067 31.1967C76.9767 24.8 77.7767 14.59 71.6167 8.40334C65.45 2.21334 55.26 3.02001 48.8834 9.41668L32.73 25.64C26.36 32.0367 25.56 42.2467 31.72 48.43C31.9501 48.6693 32.2255 48.8603 32.5302 48.992C32.8349 49.1237 33.1627 49.1934 33.4946 49.197C33.8266 49.2007 34.1559 49.1382 34.4634 49.0132C34.7709 48.8882 35.0504 48.7033 35.2857 48.4691C35.5209 48.235 35.7072 47.9563 35.8336 47.6494C35.96 47.3425 36.0241 47.0135 36.022 46.6816C36.0199 46.3496 35.9518 46.0215 35.8215 45.7162C35.6913 45.4109 35.5015 45.1345 35.2634 44.9033C31.3834 41.01 31.49 33.97 36.2734 29.17L52.43 12.9467Z" fill="white"/>
<path d="M48.2834 31.5667C47.8148 31.0968 47.1788 30.8323 46.5152 30.8314C45.8517 30.8304 45.2149 31.0931 44.745 31.5617C44.2752 32.0302 44.0107 32.6662 44.0097 33.3298C44.0088 33.9934 44.2715 34.6301 44.74 35.1C48.62 38.9933 48.5167 46.03 43.73 50.8333L27.5734 67.0533C22.79 71.8533 15.7967 71.9533 11.9267 68.0667C8.04669 64.1733 8.15336 57.1333 12.9367 52.3333L21.0167 44.2233C21.2485 43.9907 21.4322 43.7147 21.5573 43.411C21.6824 43.1074 21.7464 42.782 21.7458 42.4536C21.7452 42.1252 21.6799 41.8001 21.5537 41.497C21.4274 41.1938 21.2427 40.9185 21.01 40.6867C20.7774 40.4549 20.5013 40.2712 20.1977 40.1461C19.894 40.021 19.5687 39.9569 19.2403 39.9575C18.9119 39.9582 18.5868 40.0235 18.2837 40.1497C17.9805 40.276 17.7051 40.4607 17.4734 40.6933L9.39336 48.8033C3.02336 55.2033 2.22336 65.41 8.38336 71.5967C14.55 77.79 24.74 76.98 31.1167 70.5833L47.2734 54.36C53.6434 47.9667 54.4434 37.75 48.2834 31.5667Z" fill="white"/>
</svg>
