<svg width="80" height="80" viewBox="0 0 80 80" fill="none" xmlns="http://www.w3.org/2000/svg">
<path d="M16 12C13.8783 12 11.8434 12.8429 10.3431 14.3431C8.84285 15.8434 8 17.8783 8 20V34.684C9.14 33.276 10.488 32.044 12 31.032V20C12 18.9391 12.4214 17.9217 13.1716 17.1716C13.9217 16.4214 14.9391 16 16 16H64C65.0609 16 66.0783 16.4214 66.8284 17.1716C67.5786 17.9217 68 18.9391 68 20V52C68 53.0609 67.5786 54.0783 66.8284 54.8284C66.0783 55.5786 65.0609 56 64 56H36.968C36.6654 56.453 36.3424 56.8922 36 57.316V60H64C66.1217 60 68.1566 59.1571 69.6569 57.6569C71.1571 56.1566 72 54.1217 72 52V20C72 17.8783 71.1571 15.8434 69.6569 14.3431C68.1566 12.8429 66.1217 12 64 12H16ZM20 26C20 25.4696 20.2107 24.9609 20.5858 24.5858C20.9609 24.2107 21.4696 24 22 24H58C58.5304 24 59.0391 24.2107 59.4142 24.5858C59.7893 24.9609 60 25.4696 60 26C60 26.5304 59.7893 27.0391 59.4142 27.4142C59.0391 27.7893 58.5304 28 58 28H22C21.4696 28 20.9609 27.7893 20.5858 27.4142C20.2107 27.0391 20 26.5304 20 26ZM22 60C18.287 60 14.726 58.525 12.1005 55.8995C9.475 53.274 8 49.713 8 46C8 42.287 9.475 38.726 12.1005 36.1005C14.726 33.475 18.287 32 22 32C25.713 32 29.274 33.475 31.8995 36.1005C34.525 38.726 36 42.287 36 46C36 49.713 34.525 53.274 31.8995 55.8995C29.274 58.525 25.713 60 22 60ZM12 60.968C14.958 62.9499 18.4394 64.0055 22 64C25.7 64 29.14 62.88 32 60.968V72C32 72.3714 31.8966 72.7355 31.7013 73.0515C31.506 73.3674 31.2266 73.6227 30.8944 73.7889C30.5622 73.955 30.1903 74.0253 29.8204 73.9919C29.4505 73.9586 29.0971 73.8229 28.8 73.6L23.2 69.4C22.8538 69.1404 22.4327 69 22 69C21.5673 69 21.1462 69.1404 20.8 69.4L15.2 73.6C14.9029 73.8229 14.5495 73.9586 14.1796 73.9919C13.8097 74.0253 13.4378 73.955 13.1056 73.7889C12.7734 73.6227 12.494 73.3674 12.2987 73.0515C12.1034 72.7355 12 72.3714 12 72V60.968ZM42 40C41.4696 40 40.9609 40.2107 40.5858 40.5858C40.2107 40.9609 40 41.4696 40 42C40 42.5304 40.2107 43.0391 40.5858 43.4142C40.9609 43.7893 41.4696 44 42 44H58C58.5304 44 59.0391 43.7893 59.4142 43.4142C59.7893 43.0391 60 42.5304 60 42C60 41.4696 59.7893 40.9609 59.4142 40.5858C59.0391 40.2107 58.5304 40 58 40H42Z" fill="white"/>
</svg>
